<mxfile host="app.diagrams.net" agent="Mozilla/5.0 (Windows NT 10.0; Win64; x64) AppleWebKit/537.36 (KHTML, like Gecko) Chrome/134.0.0.0 Safari/537.36" version="26.1.0">
  <diagram name="PÃ¡gina-1" id="nx9RkFwzv0Qnll_9-QOW">
    <mxGraphModel dx="1050" dy="557" grid="1" gridSize="10" guides="1" tooltips="1" connect="1" arrows="1" fold="1" page="1" pageScale="1" pageWidth="827" pageHeight="1169" math="0" shadow="0">
      <root>
        <mxCell id="0" />
        <mxCell id="1" parent="0" />
        <mxCell id="sl5r4oBX_HP8fIbL58Xh-3" value="" style="edgeStyle=orthogonalEdgeStyle;rounded=0;orthogonalLoop=1;jettySize=auto;html=1;" edge="1" parent="1" source="sl5r4oBX_HP8fIbL58Xh-1" target="sl5r4oBX_HP8fIbL58Xh-2">
          <mxGeometry relative="1" as="geometry" />
        </mxCell>
        <mxCell id="sl5r4oBX_HP8fIbL58Xh-1" value="inicio" style="ellipse;whiteSpace=wrap;html=1;" vertex="1" parent="1">
          <mxGeometry x="354" y="10" width="120" height="80" as="geometry" />
        </mxCell>
        <mxCell id="sl5r4oBX_HP8fIbL58Xh-5" value="" style="edgeStyle=orthogonalEdgeStyle;rounded=0;orthogonalLoop=1;jettySize=auto;html=1;" edge="1" parent="1" source="sl5r4oBX_HP8fIbL58Xh-2" target="sl5r4oBX_HP8fIbL58Xh-4">
          <mxGeometry relative="1" as="geometry" />
        </mxCell>
        <mxCell id="sl5r4oBX_HP8fIbL58Xh-2" value="valor, qtde" style="shape=parallelogram;perimeter=parallelogramPerimeter;whiteSpace=wrap;html=1;fixedSize=1;" vertex="1" parent="1">
          <mxGeometry x="354" y="170" width="120" height="60" as="geometry" />
        </mxCell>
        <mxCell id="sl5r4oBX_HP8fIbL58Xh-7" value="" style="edgeStyle=orthogonalEdgeStyle;rounded=0;orthogonalLoop=1;jettySize=auto;html=1;" edge="1" parent="1" source="sl5r4oBX_HP8fIbL58Xh-4" target="sl5r4oBX_HP8fIbL58Xh-6">
          <mxGeometry relative="1" as="geometry" />
        </mxCell>
        <mxCell id="sl5r4oBX_HP8fIbL58Xh-4" value="venda = valor*qtde&lt;div&gt;comissao = (venda&amp;nbsp;&lt;span style=&quot;background-color: transparent; color: light-dark(rgb(0, 0, 0), rgb(255, 255, 255));&quot;&gt;*5)/100&lt;/span&gt;&lt;/div&gt;" style="whiteSpace=wrap;html=1;" vertex="1" parent="1">
          <mxGeometry x="332" y="300" width="163" height="60" as="geometry" />
        </mxCell>
        <mxCell id="sl5r4oBX_HP8fIbL58Xh-9" value="" style="edgeStyle=orthogonalEdgeStyle;rounded=0;orthogonalLoop=1;jettySize=auto;html=1;" edge="1" parent="1" source="sl5r4oBX_HP8fIbL58Xh-6" target="sl5r4oBX_HP8fIbL58Xh-8">
          <mxGeometry relative="1" as="geometry" />
        </mxCell>
        <mxCell id="sl5r4oBX_HP8fIbL58Xh-6" value="comissao" style="shape=document;whiteSpace=wrap;html=1;boundedLbl=1;" vertex="1" parent="1">
          <mxGeometry x="353.5" y="430" width="120" height="80" as="geometry" />
        </mxCell>
        <mxCell id="sl5r4oBX_HP8fIbL58Xh-8" value="fim" style="ellipse;whiteSpace=wrap;html=1;" vertex="1" parent="1">
          <mxGeometry x="373.5" y="590" width="80" height="80" as="geometry" />
        </mxCell>
      </root>
    </mxGraphModel>
  </diagram>
</mxfile>
